<?xml version="1.0" encoding="UTF-8" standalone="no"?>
<!DOCTYPE svg PUBLIC "-//W3C//DTD SVG 1.1//EN" "http://www.w3.org/Graphics/SVG/1.1/DTD/svg11.dtd">
<svg width="100%" height="100%" viewBox="0 0 1735 811" version="1.1" xmlns="http://www.w3.org/2000/svg" xmlns:xlink="http://www.w3.org/1999/xlink" xml:space="preserve" xmlns:serif="http://www.serif.com/" style="fill-rule:evenodd;clip-rule:evenodd;stroke-linecap:round;stroke-linejoin:round;stroke-miterlimit:1.5;">
    <g transform="matrix(1,0,0,1,-275.448,-765.827)">
        <g transform="matrix(0.99988,0.015502,-0.015502,0.99988,12.1255,-14.2699)">
            <path d="M279.615,780.023L2004.58,753.279" style="fill:none;stroke:rgb(127,127,127);stroke-width:8.33px;"/>
        </g>
        <g transform="matrix(0.99988,0.015502,-0.015502,0.99988,12.1255,129.732)">
            <path d="M279.615,780.023L2004.58,753.279" style="fill:none;stroke:rgb(127,127,127);stroke-width:8.33px;"/>
        </g>
        <g transform="matrix(0.99988,0.015502,-0.015502,0.99988,12.1255,273.734)">
            <path d="M279.615,780.023L2004.58,753.279" style="fill:none;stroke:rgb(127,127,127);stroke-width:8.33px;"/>
        </g>
        <g transform="matrix(0.00853784,-0.463244,0.550691,0.00718207,-152.323,1696.02)">
            <path d="M279.615,780.023L2004.58,753.279" style="fill:none;stroke:rgb(127,127,127);stroke-width:16.33px;"/>
        </g>
        <g transform="matrix(0.00853784,-0.463244,0.550691,0.00718207,726.834,1696.02)">
            <path d="M279.615,780.023L2004.58,753.279" style="fill:none;stroke:rgb(127,127,127);stroke-width:16.33px;"/>
        </g>
        <g transform="matrix(0.00853784,-0.463244,0.550691,0.00718207,416.026,1696.02)">
            <path d="M279.615,780.023L2004.58,753.279" style="fill:none;stroke:rgb(127,127,127);stroke-width:16.33px;"/>
        </g>
        <g transform="matrix(0.00853784,-0.463244,0.550691,0.00718207,1574.25,1696.02)">
            <path d="M279.615,780.023L2004.58,753.279" style="fill:none;stroke:rgb(127,127,127);stroke-width:16.33px;"/>
        </g>
        <g transform="matrix(1,0,0,1,23.251,211.197)">
            <text x="351.754px" y="654.717px" style="font-family:'TimesNewRomanPSMT', 'Times New Roman', serif;font-size:83.333px;">T<tspan x="396.838px 433.826px 460.071px 501.738px " y="654.717px 654.717px 654.717px 654.717px ">arge</tspan>t row</text>
        </g>
        <g transform="matrix(1,0,0,1,559.963,211.197)">
            <text x="351.754px" y="654.717px" style="font-family:'TimesNewRomanPSMT', 'Times New Roman', serif;font-size:83.333px;">Index</text>
        </g>
        <g transform="matrix(0.00853784,-0.463244,0.550691,0.00718207,1037.64,1696.02)">
            <path d="M279.615,780.023L2004.58,753.279" style="fill:none;stroke:rgb(127,127,127);stroke-width:16.33px;"/>
        </g>
        <g transform="matrix(1,0,0,1,871.914,211.197)">
            <text x="351.754px" y="654.717px" style="font-family:'TimesNewRomanPSMT', 'Times New Roman', serif;font-size:83.333px;">Index</text>
        </g>
        <g transform="matrix(1,0,0,1,28.108,-89.2523)">
            <g transform="matrix(1,0,0,1.13207,17.2955,602.404)">
                <ellipse cx="518.386" cy="632.434" rx="7.75" ry="6.782" style="fill:rgb(126,126,126);stroke:rgb(127,127,127);stroke-width:7.8px;"/>
            </g>
            <g transform="matrix(1,0,0,1.13207,17.2955,656.156)">
                <ellipse cx="518.386" cy="632.434" rx="7.75" ry="6.782" style="fill:rgb(126,126,126);stroke:rgb(127,127,127);stroke-width:7.8px;"/>
            </g>
            <g transform="matrix(1,0,0,1.13207,17.2955,709.908)">
                <ellipse cx="518.386" cy="632.434" rx="7.75" ry="6.782" style="fill:rgb(126,126,126);stroke:rgb(127,127,127);stroke-width:7.8px;"/>
            </g>
            <g transform="matrix(1,0,0,1.13207,17.2955,763.66)">
                <ellipse cx="518.386" cy="632.434" rx="7.75" ry="6.782" style="fill:rgb(126,126,126);stroke:rgb(127,127,127);stroke-width:7.8px;"/>
            </g>
        </g>
        <g transform="matrix(1,0,0,1,467.687,-89.2523)">
            <g transform="matrix(1,0,0,1.13207,17.2955,602.404)">
                <ellipse cx="518.386" cy="632.434" rx="7.75" ry="6.782" style="fill:rgb(126,126,126);stroke:rgb(127,127,127);stroke-width:7.8px;"/>
            </g>
            <g transform="matrix(1,0,0,1.13207,17.2955,656.156)">
                <ellipse cx="518.386" cy="632.434" rx="7.75" ry="6.782" style="fill:rgb(126,126,126);stroke:rgb(127,127,127);stroke-width:7.8px;"/>
            </g>
            <g transform="matrix(1,0,0,1.13207,17.2955,709.908)">
                <ellipse cx="518.386" cy="632.434" rx="7.75" ry="6.782" style="fill:rgb(126,126,126);stroke:rgb(127,127,127);stroke-width:7.8px;"/>
            </g>
            <g transform="matrix(1,0,0,1.13207,17.2955,763.66)">
                <ellipse cx="518.386" cy="632.434" rx="7.75" ry="6.782" style="fill:rgb(126,126,126);stroke:rgb(127,127,127);stroke-width:7.8px;"/>
            </g>
        </g>
        <g transform="matrix(1,0,0,1,778.495,-89.2523)">
            <g transform="matrix(1,0,0,1.13207,17.2955,602.404)">
                <ellipse cx="518.386" cy="632.434" rx="7.75" ry="6.782" style="fill:rgb(126,126,126);stroke:rgb(127,127,127);stroke-width:7.8px;"/>
            </g>
            <g transform="matrix(1,0,0,1.13207,17.2955,656.156)">
                <ellipse cx="518.386" cy="632.434" rx="7.75" ry="6.782" style="fill:rgb(126,126,126);stroke:rgb(127,127,127);stroke-width:7.8px;"/>
            </g>
            <g transform="matrix(1,0,0,1.13207,17.2955,709.908)">
                <ellipse cx="518.386" cy="632.434" rx="7.75" ry="6.782" style="fill:rgb(126,126,126);stroke:rgb(127,127,127);stroke-width:7.8px;"/>
            </g>
            <g transform="matrix(1,0,0,1.13207,17.2955,763.66)">
                <ellipse cx="518.386" cy="632.434" rx="7.75" ry="6.782" style="fill:rgb(126,126,126);stroke:rgb(127,127,127);stroke-width:7.8px;"/>
            </g>
        </g>
        <g transform="matrix(6.12323e-17,-1,1,6.12323e-17,338.897,1377.68)">
            <g transform="matrix(1,0,0,1.13207,17.2955,602.404)">
                <ellipse cx="518.386" cy="632.434" rx="7.75" ry="6.782" style="fill:rgb(126,126,126);stroke:rgb(127,127,127);stroke-width:7.8px;"/>
            </g>
            <g transform="matrix(1,0,0,1.13207,17.2955,656.156)">
                <ellipse cx="518.386" cy="632.434" rx="7.75" ry="6.782" style="fill:rgb(126,126,126);stroke:rgb(127,127,127);stroke-width:7.8px;"/>
            </g>
            <g transform="matrix(1,0,0,1.13207,17.2955,709.908)">
                <ellipse cx="518.386" cy="632.434" rx="7.75" ry="6.782" style="fill:rgb(126,126,126);stroke:rgb(127,127,127);stroke-width:7.8px;"/>
            </g>
            <g transform="matrix(1,0,0,1.13207,17.2955,763.66)">
                <ellipse cx="518.386" cy="632.434" rx="7.75" ry="6.782" style="fill:rgb(126,126,126);stroke:rgb(127,127,127);stroke-width:7.8px;"/>
            </g>
        </g>
    </g>
</svg>
